<svg xmlns="http://www.w3.org/2000/svg" width="23" height="22" fill="none"><path fill-rule="evenodd" d="M1.235 5.502a5.56 5.56 0 0 0-.885-.246l-.067-.012c-.204-.036-.204-.328 0-.365l.067-.012a5.56 5.56 0 0 0 .885-.246l.499-.213c1.121-.544 2.029-1.452 2.573-2.573l.213-.499A5.56 5.56 0 0 0 4.766.45l.012-.067c.036-.204.328-.204.365 0l.012.067a5.56 5.56 0 0 0 .246.885l.213.499c.544 1.121 1.452 2.029 2.573 2.573l.499.213a5.56 5.56 0 0 0 .885.246l.067.012c.204.036.204.328 0 .365l-.067.012a5.56 5.56 0 0 0-.885.246l-.499.213c-1.121.544-2.029 1.452-2.573 2.573l-.213.499a5.56 5.56 0 0 0-.246.885l-.012.067c-.036.204-.328.204-.365 0l-.012-.067a5.56 5.56 0 0 0-.246-.885l-.213-.499c-.544-1.121-1.452-2.029-2.573-2.573l-.499-.213zm6.804 7.236l-.605-.141-.096-.018-.01-.002-.013-.002-.087-.016-.016-.003c-.326-.062-.326-.528 0-.59l.016-.003.087-.016.013-.002.01-.002.096-.018.605-.141.504-.152c2.683-.894 4.794-3.006 5.689-5.689l.152-.504.141-.605.018-.096.002-.01.002-.013.015-.085v-.002l.003-.016c.062-.326.528-.326.59 0l.003.016.016.087.002.013.002.01.018.096.141.605.152.504c.894 2.683 3.006 4.794 5.689 5.689l.504.152.605.141.096.018.01.002.013.002.087.016.015.003c.326.062.326.528 0 .59l-.015.003-.047.008-.04.007-.013.002-.01.002-.096.018-.605.141-.504.152c-2.683.894-4.794 3.006-5.689 5.689l-.152.504-.141.605-.018.096-.002.01-.002.013-.005.03-.01.055-.003.017c-.062.326-.528.326-.59 0l-.003-.016-.016-.087-.002-.013-.002-.01-.018-.096-.141-.605-.152-.504c-.894-2.683-3.006-4.794-5.689-5.689l-.504-.152zm-4.491 6.246c.342.065.666.18.965.336a3.5 3.5 0 0 1 .383.232 3.52 3.52 0 0 1 .873.873 3.5 3.5 0 0 1 .232.383c.156.299.27.623.336.965l.008.043c.023.129.207.129.23 0l.008-.043c.065-.342.18-.667.336-.965.069-.133.147-.261.232-.383a3.52 3.52 0 0 1 .873-.873 3.5 3.5 0 0 1 .383-.232c.299-.156.623-.27.965-.336l.042-.008c.129-.023.129-.207 0-.23l-.042-.008c-.342-.065-.666-.18-.965-.336a3.5 3.5 0 0 1-.383-.232 3.52 3.52 0 0 1-.873-.873c-.085-.122-.163-.25-.232-.383-.156-.299-.27-.623-.336-.965l-.008-.042c-.023-.129-.207-.129-.23 0l-.008.042c-.065.342-.18.667-.336.965a3.5 3.5 0 0 1-.232.383 3.52 3.52 0 0 1-.873.873 3.5 3.5 0 0 1-.383.232c-.299.156-.623.27-.965.336l-.043.008c-.129.023-.129.207 0 .23l.043.008z" fill="#000" fill-opacity=".8"/></svg>