<svg xmlns="http://www.w3.org/2000/svg" width="40" height="40" fill="none"><path opacity=".2" d="M8.75 36.25c0 .331 1.054.65 2.929.884s4.419.366 7.071.366 5.196-.132 7.071-.366 2.929-.552 2.929-.884-1.054-.65-2.929-.884S21.402 35 18.75 35s-5.196.132-7.071.366-2.929.552-2.929.884z" fill="#45413c"/><use href="#B" fill="#ffe500"/><path d="M23.696 14.434H8.046c-.58 0-1.136.23-1.546.64s-.64.966-.64 1.545v2.914c0-.58.23-1.136.64-1.546s.966-.64 1.546-.64h15.665c.58 0 1.136.23 1.546.64s.64.966.64 1.546v-2.914c0-.288-.057-.574-.168-.84a2.19 2.19 0 0 0-.478-.711c-.204-.203-.447-.364-.714-.473s-.553-.164-.841-.162z" fill="#fff48c"/><use href="#B" stroke="#45413c" stroke-width=".437" stroke-linejoin="round"/><path d="M15.864 3.505a7.84 7.84 0 0 0-7.818 7.832v3.097h3.279v-3.097c0-1.208.48-2.366 1.334-3.22s2.012-1.334 3.22-1.334 2.366.48 3.22 1.334 1.334 2.012 1.334 3.22v3.097h3.279v-3.097a7.83 7.83 0 0 0-2.299-5.543c-.729-.727-1.594-1.304-2.546-1.697s-1.972-.594-3.002-.592z" fill="#daedf7"/><path d="M15.864 3.505a7.84 7.84 0 0 0-7.818 7.832v1.822a7.83 7.83 0 0 1 7.832-7.832 7.83 7.83 0 0 1 7.832 7.832v-1.822a7.83 7.83 0 0 0-2.299-5.543c-.729-.727-1.594-1.304-2.546-1.697s-1.972-.594-3.002-.592z" fill="#fff"/><path d="M15.864 3.505a7.84 7.84 0 0 0-7.818 7.832v3.097h3.279v-3.097c0-1.208.48-2.366 1.334-3.22s2.012-1.334 3.22-1.334 2.366.48 3.22 1.334 1.334 2.012 1.334 3.22v3.097h3.279v-3.097a7.83 7.83 0 0 0-2.299-5.543c-.729-.727-1.594-1.304-2.546-1.697s-1.972-.594-3.002-.592h0z" stroke="#45413c" stroke-width=".437" stroke-linejoin="round"/><path d="M33.415 20c-.912-.909-2.115-1.467-3.398-1.576s-2.563.239-3.614.982-1.807 1.834-2.133 3.079-.202 2.566.351 3.729l-6.929 6.9a.73.73 0 0 0-.172.271c-.037.102-.05.211-.039.319l.16 1.392a.73.73 0 0 0 .641.648l1.392.153a.73.73 0 0 0 .597-.211l.823-.823c.068-.068.121-.149.157-.238s.055-.184.054-.28v-.729h.729c.096.001.191-.018.28-.054s.17-.09.238-.157l.648-.648c.068-.068.121-.149.157-.238s.055-.184.054-.28v-.43a.73.73 0 0 1 .219-.51l.86-.86a.73.73 0 0 1 .517-.219h.423a.73.73 0 0 0 .517-.211l1.253-1.253c1.157.531 2.463.642 3.693.312s2.306-1.078 3.043-2.116 1.088-2.301.993-3.571-.631-2.466-1.514-3.383zm-2.572 2.579c-.107-.1-.194-.221-.253-.355s-.092-.279-.094-.426.024-.293.079-.428.137-.26.241-.364.227-.186.364-.241.282-.082.429-.079.291.035.425.094.255.146.355.253c.193.207.298.481.293.764s-.12.553-.32.753-.47.315-.754.32-.557-.1-.764-.293z" fill="#ffaa54"/><path d="M25.685 22.295a5.49 5.49 0 0 1 2.478-1.418c.937-.246 1.922-.239 2.855.019.207-.141.457-.205.707-.183s.484.131.663.306a1.07 1.07 0 0 1 .299.67 5.72 5.72 0 0 1 .729.605 5.42 5.42 0 0 1 1.457 2.71 5.45 5.45 0 0 0-.017-2.418c-.187-.795-.548-1.537-1.06-2.174s-1.159-1.149-1.895-1.502-1.542-.536-2.358-.536-1.622.183-2.358.536a5.46 5.46 0 0 0-1.895 1.502c-.511.636-.874 1.379-1.06 2.174a5.46 5.46 0 0 0-.017 2.418 5.48 5.48 0 0 1 1.472-2.71zm-7.949 13.107l6.885-6.892c-.266-.572-.432-1.186-.488-1.814l-6.441 6.419a.73.73 0 0 0-.172.271.72.72 0 0 0-.039.319l.16 1.392c.006.108.038.213.095.306z" fill="#fc9"/><g stroke="#45413c" stroke-width=".437" stroke-linejoin="round"><path d="M33.415 20c-.912-.909-2.115-1.467-3.398-1.576s-2.563.239-3.614.982-1.807 1.834-2.133 3.079-.202 2.566.351 3.729l-6.929 6.9a.73.73 0 0 0-.172.271c-.037.102-.05.211-.039.319l.16 1.392a.73.73 0 0 0 .641.648l1.392.153a.73.73 0 0 0 .597-.211l.823-.823c.068-.068.121-.149.157-.238s.055-.184.054-.28v-.729h.729c.096.001.191-.018.28-.054s.17-.09.238-.157l.648-.648c.068-.068.121-.149.157-.238s.055-.184.054-.28v-.43a.73.73 0 0 1 .219-.51l.86-.86a.73.73 0 0 1 .517-.219h.423a.73.73 0 0 0 .517-.211l1.253-1.253c1.157.531 2.463.642 3.693.312s2.306-1.078 3.043-2.116 1.088-2.301.993-3.571-.631-2.466-1.514-3.383h0zm-2.572 2.579c-.107-.1-.194-.221-.253-.355s-.092-.279-.094-.426.024-.293.079-.428.137-.26.241-.364.227-.186.364-.241.282-.082.429-.079.291.035.425.094.255.146.355.253c.193.207.298.481.293.764s-.12.553-.32.753-.47.315-.754.32-.557-.1-.764-.293h0z"/><path d="M17.7 35.184l6.703-6.696" stroke-linecap="round"/></g><defs ><path id="B" d="M5.846 14.434h20.036v16.029H5.846V14.434z"/></defs></svg>