<svg width="16" height="16" viewBox="0 0 16 16" fill="none" xmlns="http://www.w3.org/2000/svg">
<path fill-rule="evenodd" clip-rule="evenodd" d="M6.3 2.4C3.5938 2.4 1.4 4.5938 1.4 7.3C1.4 10.0062 3.5938 12.2 6.3 12.2C9.0062 12.2 11.2 10.0062 11.2 7.3C11.2 4.5938 9.0062 2.4 6.3 2.4ZM0 7.3C0 3.82061 2.82061 1 6.3 1C9.77939 1 12.6 3.82061 12.6 7.3C12.6 8.78751 12.0845 10.1546 11.2223 11.2324L13.795 13.805C14.0683 14.0784 14.0683 14.5216 13.795 14.795C13.5216 15.0683 13.0784 15.0683 12.805 14.795L10.2324 12.2223C9.15461 13.0845 7.78751 13.6 6.3 13.6C2.82061 13.6 0 10.7794 0 7.3Z" fill="black" fill-opacity="0.8"/>
</svg>
