<svg xmlns="http://www.w3.org/2000/svg" width="22" height="22" fill="none"><style><![CDATA[.B{stroke-width:.5}.C{stroke-linejoin:round}.D{stroke:#45413c}.E{fill:#dabff5}.F{fill:#eddbff}.G{fill:#ff866e}.H{stroke-linecap:round}.I{fill:#bf8df2}]]></style><path opacity=".2" d="M1.571 20.429c0 .208.993.408 2.762.556l6.667.23 6.667-.23c1.768-.147 2.762-.347 2.762-.556s-.993-.408-2.762-.555L11 19.643l-6.667.23c-1.768.147-2.762.347-2.762.555z" fill="#45413c"/><use href="#B" class="G"/><path d="M11.605 12.274c-.392.137-.818.137-1.21 0L2.292 9.437v2.292l8.103 2.837c.392.137.818.137 1.21 0l8.103-2.837V9.437l-8.103 2.837z" fill="#ff6242"/><g class="B C"><use href="#B" class="D"/><path d="M11 19.589v-6.188" stroke="#e04122" class="H"/></g><use href="#C" class="G"/><path d="M11.605 9.066c-.392.137-.818.137-1.21 0L1.833 6.068v1.375l8.562 2.997c.392.137.818.137 1.21 0l8.562-2.997V6.068l-8.562 2.997z" fill="#ffa694"/><g class="B C D"><use href="#C"/><path d="M1.833 6.068l8.562-2.997c.392-.137.818-.137 1.21 0l8.562 2.998-8.562 2.997c-.392.137-.818.137-1.21 0L1.833 6.068z" class="G"/><path d="M12.907 3.529L3.667 6.71v3.208l4.125 1.444V8.154l9.24-3.181-4.125-1.444z" class="F"/></g><path d="M4.89 7.141l2.085.729" stroke="#bf8df2" class="B C H"/><use href="#D" class="F"/><path d="M4.125 10.079v2.292l4.125 1.444v-2.292l-4.125-1.444z" class="E"/><g class="B C D"><use href="#D"/><path d="M9.093 3.529l9.24 3.181v3.208l-4.125 1.444V8.154l-9.24-3.181 4.125-1.444z" class="F"/></g><path d="M17.11 7.141l-2.085.729" stroke="#bf8df2" class="B C H"/><use href="#E" class="F"/><path d="M17.875 10.079v2.292l-4.125 1.444v-2.292l4.125-1.444z" class="E"/><g class="B C D"><use href="#E"/><path d="M9.625 6.55l.688-1.146S7.475 1.7 4.354 2.603c-.3.087-.561.273-.741.528s-.268.563-.249.875L3.456 5.5l6.169 1.05z" class="E"/><path d="M9.625 6.55s-2.557 1.05-5.913-.651a.46.46 0 0 1-.262-.454.46.46 0 0 1 .336-.403c1.019-.301 2.1-.319 3.128-.054s1.965.805 2.711 1.562z" class="I"/><path d="M12.398 6.55l-.687-1.146s2.837-3.703 5.958-2.8c.296.09.553.278.73.532s.262.561.242.87L18.544 5.5l-6.146 1.05z" class="E"/><g class="I"><path d="M12.398 6.55s2.535 1.05 5.89-.651a.46.46 0 0 0 .262-.454.46.46 0 0 0-.336-.403c-1.015-.296-2.092-.313-3.116-.047s-1.957.803-2.7 1.555z"/><path d="M12.091 6.146s3.337 1.027 4.061 3.483l-1.646-.284L13.993 11S12.439 7.26 11 6.724l1.091-.578z"/><path d="M9.909 6.146S6.573 7.173 5.848 9.63l1.645-.284L8.007 11S9.561 7.246 11 6.71l-1.091-.564z"/></g></g><path d="M8.938 5.578c0 .425.217.833.604 1.134s.911.47 1.458.47 1.072-.169 1.458-.47.604-.709.604-1.134-.217-.833-.604-1.134-.911-.47-1.458-.47-1.072.169-1.458.47-.604.709-.604 1.134z" class="I"/><path d="M11 4.89a2.05 2.05 0 0 1 1.966 1.146 1.3 1.3 0 0 0 .096-.458c0-.889-.917-1.604-2.062-1.604s-2.062.715-2.062 1.604a1.3 1.3 0 0 0 .096.458A2.05 2.05 0 0 1 11 4.89z" class="E"/><path d="M8.938 5.578c0 .425.217.833.604 1.134s.911.47 1.458.47 1.072-.169 1.458-.47.604-.709.604-1.134-.217-.833-.604-1.134-.911-.47-1.458-.47-1.072.169-1.458.47-.604.709-.604 1.134h0z" class="B C D"/><defs ><path id="B" d="M10.395 12.274L2.292 9.437v7.695a.46.46 0 0 0 .307.431l7.792 2.75c.392.133.818.133 1.21 0l7.792-2.75a.46.46 0 0 0 .307-.431V9.437l-8.094 2.837c-.392.137-.818.137-1.21 0z"/><path id="C" d="M10.395 9.066L1.833 6.068v2.883a.46.46 0 0 0 .307.431l8.25 2.892c.392.137.818.137 1.21 0l8.25-2.892a.46.46 0 0 0 .222-.167c.055-.077.085-.169.085-.264V6.068l-8.552 2.997c-.392.137-.818.137-1.21 0z"/><path id="D" d="M4.125 10.079V18.1l4.125 1.444v-8.021l-4.125-1.444z"/><path id="E" d="M17.875 10.079V18.1l-4.125 1.444v-8.021l4.125-1.444z"/></defs></svg>