<svg width="267" height="40" viewBox="0 0 267 40" fill="none" xmlns="http://www.w3.org/2000/svg">
<path d="M41.3662 30.7199V4.74072H57.6593V9.26847H45.894V14.5375H55.2294V19.0653H45.894V26.1922H57.6593V30.7199H41.3662ZM78.7324 18.9914V30.7199H74.2047V20.1787C74.2047 19.4497 74.0263 18.7884 73.6664 18.1917C73.3065 17.5857 72.8267 17.109 72.2176 16.7614C71.624 16.4015 70.9627 16.2231 70.2306 16.2231C69.4985 16.2231 68.8341 16.4015 68.2251 16.7614C67.6315 17.109 67.1547 17.5827 66.7948 18.1917C66.4472 18.7853 66.275 19.4467 66.275 20.1787V30.7199H61.7472L61.7288 12.1629H66.2565L66.275 13.8147C66.9055 13.1472 67.6591 12.6212 68.5388 12.2367C69.4186 11.8399 70.3629 11.6431 71.3779 11.6431C72.7252 11.6431 73.9586 11.9784 75.0721 12.6458C76.1856 13.301 77.0714 14.1869 77.7266 15.3003C78.3941 16.4015 78.7294 17.6319 78.7294 18.9945L78.7324 18.9914ZM93.0816 30.7199H87.2373L80.4826 12.1444H85.3087L90.1718 25.5062L95.0163 12.1444H99.8424L93.0877 30.7199H93.0816ZM102.58 12.1629H107.108V30.7199H102.58V12.1629ZM104.881 9.76984C104.213 9.76984 103.65 9.55453 103.192 9.12083C102.734 8.67482 102.506 8.11808 102.506 7.4506C102.506 6.78313 102.734 6.24485 103.192 5.79884C103.65 5.35283 104.207 5.13136 104.862 5.13136C105.517 5.13136 106.068 5.35283 106.514 5.79884C106.972 6.24485 107.2 6.79543 107.2 7.4506C107.2 8.10577 106.979 8.67482 106.533 9.12083C106.087 9.55453 105.536 9.76984 104.881 9.76984ZM111.442 30.7199L111.423 12.1629H115.951L115.969 13.8147C116.6 13.1472 117.357 12.6212 118.233 12.2367C119.113 11.8399 120.057 11.6431 121.072 11.6431C121.752 11.6431 122.432 11.7415 123.115 11.9414L121.334 16.5061C120.863 16.3215 120.393 16.2293 119.925 16.2293C119.196 16.2293 118.526 16.4077 117.92 16.7676C117.326 17.1151 116.849 17.5888 116.489 18.1979C116.142 18.7915 115.969 19.4528 115.969 20.1849V30.7261H111.442V30.7199ZM138.319 12.1629H142.847V30.7199H138.319L138.116 28.4191C137.609 29.2465 136.935 29.9232 136.092 30.4431C135.265 30.9506 134.28 31.2028 133.142 31.2028C131.77 31.2028 130.482 30.9444 129.282 30.4246C128.082 29.9048 127.024 29.1881 126.108 28.2715C125.203 27.3548 124.493 26.2967 123.973 25.0971C123.465 23.8975 123.213 22.6118 123.213 21.2369C123.213 19.8619 123.453 18.6685 123.936 17.5058C124.431 16.3431 125.117 15.3219 125.997 14.4452C126.877 13.5655 127.889 12.8796 129.039 12.3844C130.189 11.8891 131.426 11.6431 132.752 11.6431C133.976 11.6431 135.071 11.9138 136.037 12.4582C137.015 13.0026 137.842 13.6947 138.522 14.5375L138.319 12.1629ZM133.032 26.8412C133.997 26.8412 134.849 26.6012 135.594 26.1183C136.335 25.6354 136.916 24.9864 137.338 24.1713C137.759 23.3439 137.968 22.4334 137.968 21.4429C137.968 20.4525 137.759 19.5328 137.338 18.7146C136.916 17.8872 136.329 17.2289 135.575 16.7491C134.834 16.2662 133.985 16.0263 133.035 16.0263C132.084 16.0263 131.211 16.2723 130.417 16.7676C129.639 17.2505 129.011 17.8995 128.544 18.7146C128.085 19.5297 127.858 20.4402 127.858 21.4429C127.858 22.4457 128.092 23.3531 128.562 24.1713C129.033 24.9864 129.657 25.6385 130.435 26.1183C131.226 26.6012 132.093 26.8412 133.035 26.8412H133.032Z" fill="#0F172A"/>
<path d="M188.687 14.5409C188.007 13.7012 187.176 13.006 186.201 12.4616C185.236 11.9172 184.141 11.6465 182.916 11.6465C181.594 11.6465 180.354 11.8926 179.204 12.3878C178.053 12.883 177.038 13.5689 176.162 14.4486C175.282 15.3284 174.596 16.3465 174.101 17.5092C173.618 18.6719 173.378 19.9145 173.378 21.2403C173.378 22.566 173.63 23.9009 174.138 25.1005C174.658 26.3001 175.368 27.3583 176.272 28.2749C177.189 29.1915 178.247 29.9082 179.447 30.428C180.646 30.9479 181.932 31.2062 183.307 31.2062C184.445 31.2062 185.429 30.954 186.257 30.4465C187.097 29.9266 187.773 29.253 188.281 28.4225L188.484 30.7233H193.012V12.1632H188.484L188.687 14.5378V14.5409ZM187.499 24.1716C187.078 24.9867 186.497 25.6388 185.755 26.1187C185.014 26.6016 184.159 26.8415 183.193 26.8415C182.227 26.8415 181.388 26.6016 180.594 26.1187C179.816 25.6357 179.188 24.9867 178.721 24.1716C178.25 23.3565 178.016 22.446 178.016 21.4433C178.016 20.4405 178.244 19.5331 178.702 18.7149C179.173 17.8998 179.797 17.2477 180.576 16.7679C181.366 16.2727 182.24 16.0266 183.193 16.0266C184.147 16.0266 184.993 16.2665 185.734 16.7494C186.487 17.2323 187.075 17.8875 187.496 18.7149C187.918 19.5301 188.127 20.4405 188.127 21.4433C188.127 22.446 187.918 23.3411 187.496 24.1716H187.499Z" fill="#00AC53"/>
<path d="M201.344 2.88574H196.816V30.7197H201.344V2.88574Z" fill="#00AC53"/>
<path d="M229.72 15.0792C228.88 14.0149 227.852 13.1814 226.641 12.5754C225.441 11.9572 224.118 11.6465 222.67 11.6465C221.396 11.6465 220.196 11.8987 219.071 12.4062C217.945 12.9138 216.954 13.6181 216.102 14.5225C215.263 15.4145 214.598 16.4511 214.115 17.6414C213.632 18.8164 213.393 20.0776 213.393 21.4279C213.393 23.2212 213.808 24.8606 214.635 26.3463C215.475 27.8319 216.598 29.0131 217.994 29.8897C219.403 30.7694 220.962 31.2062 222.67 31.2062C224.524 31.2062 226.201 30.6864 227.699 29.6467C229.197 28.5948 230.322 27.2475 231.076 25.6019L226.456 24.5253C226.022 25.1928 225.478 25.7249 224.823 26.1217C224.18 26.5062 223.463 26.6908 222.67 26.6785C221.904 26.6662 221.215 26.5001 220.609 26.1771C220.003 25.8418 219.501 25.4051 219.105 24.8606C218.708 24.3039 218.425 23.6795 218.249 22.9874H231.814C232.023 21.5017 231.937 20.0806 231.556 18.718C231.171 17.3585 230.559 16.1435 229.72 15.0823V15.0792ZM218.102 19.5885C218.262 18.8349 218.56 18.1582 218.994 17.5645C219.44 16.9586 219.978 16.4818 220.609 16.1342C221.239 15.7744 221.925 15.596 222.67 15.596C223.414 15.596 224.103 15.7744 224.749 16.1342C225.392 16.4941 225.93 16.974 226.364 17.583C226.81 18.1767 227.099 18.8441 227.237 19.5885H218.108H218.102Z" fill="#00AC53"/>
<path d="M261.266 12.1631L256.739 24.5221L252.749 12.1631H247.794L254.475 30.7201L251.116 40.0001H255.921L266.071 12.1631H261.266Z" fill="#00AC53"/>
<path d="M210.332 2.88574H205.805V30.7197H210.332V2.88574Z" fill="#00AC53"/>
<path d="M241.645 12.2399C240.765 12.6244 240.012 13.1504 239.381 13.8179L239.363 12.1661H234.835L234.853 30.7231H239.381V20.182C239.381 19.453 239.553 18.7916 239.901 18.1949C240.258 17.589 240.735 17.1122 241.328 16.7646C241.934 16.4047 242.602 16.2263 243.334 16.2263C243.804 16.2263 244.275 16.3186 244.742 16.5032L246.523 11.9385C245.844 11.7416 245.164 11.6401 244.481 11.6401C243.466 11.6401 242.519 11.837 241.642 12.2338L241.645 12.2399Z" fill="#00AC53"/>
<path d="M170.933 16.0203C168.349 15.3989 165.996 15.6419 165.996 15.6419C159.063 16.1341 155.963 21.8184 155.818 22.0921L159.86 24.2514C159.952 24.0822 161.881 20.6741 166.132 20.2404C166.098 20.2435 165.904 21.0002 165.876 21.0771C165.766 21.3877 165.639 21.6923 165.495 21.9875C165.169 22.655 164.76 23.2825 164.268 23.8392C163.631 24.5621 162.853 25.1434 162.013 25.6079C161.112 26.1031 160.204 26.4907 159.177 26.6106C158.897 26.6445 158.614 26.6599 158.334 26.6599C157.184 26.6599 156.107 26.4322 155.104 25.9739C154.102 25.5156 153.219 24.8851 152.45 24.0822C151.696 23.2671 151.103 22.3197 150.669 21.2432C150.235 20.1543 150.02 18.9978 150.02 17.7735C150.02 16.4755 150.241 15.282 150.687 14.1932C151.133 13.092 151.739 12.1385 152.505 11.3356C153.283 10.5205 154.169 9.88689 155.16 9.44396C156.163 8.99795 157.208 8.77648 158.297 8.77648C159.386 8.77648 160.5 9.02871 161.564 9.53623C162.64 10.0315 163.594 10.7851 164.421 11.8001L168.466 9.62851C167.119 7.81064 165.559 6.46647 163.791 5.60214C162.034 4.72242 160.223 4.28564 158.353 4.28564C156.682 4.28564 155.074 4.61477 153.526 5.26994C151.992 5.92511 150.62 6.85403 149.408 8.05364C148.196 9.25325 147.236 10.6712 146.532 12.3046C145.84 13.9379 145.492 15.7311 145.492 17.6874C145.492 19.6437 145.815 21.2862 146.458 22.9195C147.113 24.5406 148.018 25.9739 149.168 27.2258C150.318 28.4623 151.669 29.4343 153.213 30.1387C154.772 30.8431 156.455 31.1968 158.26 31.1968C159.1 31.1968 159.94 31.1169 160.764 30.9477C162.653 30.5601 164.424 29.7204 165.944 28.5362C167.162 27.5888 168.196 26.423 169.001 25.1096C169.697 23.9715 170.223 22.7288 170.567 21.44C170.789 20.6095 170.936 19.7544 170.985 18.8962C171.096 17.5674 170.933 16.0326 170.933 16.0326V16.0203Z" fill="#00AC53"/>
<g clip-path="url(#clip0_162_75869)">
<path d="M17.7985 35.5971C27.6284 35.5971 35.5971 27.6284 35.5971 17.7985C35.5971 7.96868 27.6284 0 17.7985 0C7.96868 0 0 7.96868 0 17.7985C0 27.6284 7.96868 35.5971 17.7985 35.5971Z" fill="#00AC53"/>
<path d="M26.4967 26.3931L24.0654 23.8796C23.9984 23.8095 23.9649 23.712 23.9771 23.6145C24.0319 23.2154 24.1782 22.0668 24.297 20.513C24.4432 18.5723 24.6839 13.8622 20.1688 10.9953C16.2538 8.51227 10.5962 8.50313 9.16122 8.54274C9.0424 8.54579 8.97233 8.6707 9.02412 8.77429C9.53901 9.81015 10.1788 14.2095 10.2672 14.7274C10.8034 17.8868 11.5833 21.226 15.2027 23.316C17.6461 24.7266 20.4673 24.9611 23.1514 24.3701C23.2581 24.3457 23.3708 24.3792 23.447 24.4585L25.8995 26.9598C25.994 27.0572 26.1372 27.0847 26.259 27.0268C26.3687 26.975 26.4875 26.8897 26.5576 26.7465C26.6155 26.6277 26.5881 26.4845 26.4967 26.39V26.3931ZM20.2145 22.0029C17.9569 20.5831 16.8479 17.9935 15.5775 15.8425C14.3009 13.6824 12.7471 11.8545 10.9984 9.99904C13.4357 10.9557 15.4861 12.8263 16.915 15.0108C17.896 16.528 18.6028 18.2737 19.4955 19.7422C20.2236 20.9243 21.1071 22.0577 22.3654 22.7158C21.6159 22.7158 20.8604 22.4111 20.2175 22.0059L20.2145 22.0029Z" fill="white"/>
</g>
<defs>
<clipPath id="clip0_162_75869">
<rect width="35.594" height="35.594" fill="white"/>
</clipPath>
</defs>
</svg>
